<?xml version='1.0' encoding='utf-8'?>
<svg xmlns="http://www.w3.org/2000/svg" width="91.44mm" height="91.44mm" version="1.1" style="shape-rendering:geometricPrecision; text-rendering:geometricPrecision; image-rendering:optimizeQuality; fill-rule:evenodd; clip-rule:evenodd" viewBox="0 0 9144 9144"> <defs> <style type="text/css">  .fil0 {fill:#F0F0F0} .fil1 {fill:#011627;fill-rule:nonzero}  </style> </defs> <g id="Layer_x0020_1"> <metadata id="CorelCorpID_0Corel-Layer"/> <g id="_2744577799920"> <polygon class="fil0" points="0,0 9144,0 9144,9144 0,9144 "/> <path class="fil1" d="M2326 6335c-211,-433 -317,-1099 -317,-1763 0,-664 106,-1330 317,-1763 10,-21 28,-36 48,-43 478,-207 1339,-311 2198,-311 862,0 1727,105 2204,313 19,9 33,23 42,41 211,433 317,1099 317,1763 0,664 -106,1330 -317,1763 -10,21 -28,36 -48,43 -478,207 -1339,311 -2198,311 -862,0 -1727,-105 -2204,-314 -19,-8 -33,-23 -42,-40zm-147 -1763c0,626 95,1251 286,1661 461,191 1283,286 2107,286 825,0 1646,-95 2107,-286 191,-410 286,-1035 286,-1661 0,-626 -95,-1251 -286,-1661 -461,-191 -1282,-286 -2107,-286 -825,0 -1646,95 -2107,286 -191,410 -286,1035 -286,1661z"/> <path class="fil1" d="M4061 3622l1292 880c39,27 49,79 23,118 -7,9 -15,17 -24,23l-1295 882c-39,26 -91,16 -118,-22 -10,-15 -14,-32 -14,-48l0 -1766c0,-47 37,-85 84,-85 20,0 38,7 52,18zm1095 950l-1062 -723 0 1446 1062 -723z"/> </g> </g> </svg>